<?xml version="1.0" encoding="utf-8"?>
<!-- Generator: Adobe Illustrator 21.0.1, SVG Export Plug-In . SVG Version: 6.00 Build 0)  -->
<svg version="1.1" id="Calque_1" xmlns="http://www.w3.org/2000/svg" xmlns:xlink="http://www.w3.org/1999/xlink" x="0px" y="0px"
	 viewBox="0 0 432 432" style="enable-background:new 0 0 432 432;" xml:space="preserve">
<style type="text/css">
	.st0{fill:#C77B32;}
	.st1{fill:#D4145A;}
	.st2{fill:#65C8D0;}
	.st3{fill:#999999;}
	.st4{fill:#BA9BC9;}
	.st5{fill:#808080;}
	.st6{fill:#C1272D;}
	.st7{fill:#DB648C;}
	.st8{fill:#39B54A;}
	.st9{fill:#FFA940;}
	.st10{fill:#29ABE2;}
	.st11{fill:#00A99D;}
</style>
<g>
	<g>
		<path d="M212.2,198.5c-1,1.1-2,2.1-3,3.1c-1.6,1.5-3.4,2.8-5.4,3.8c-4.3,2.1-9.3,1.5-12.8-1.8c-1.3-1.2-2.3-2.6-3.1-4.2
			c-0.9-1.7-1.5-3.4-1.9-5.2c-0.1-0.4-0.2-0.9-0.4-1.6c-0.3,0.7-0.6,1.1-0.8,1.5c-2.6,5.6-5.2,11.2-7.9,16.8c-0.9,2-2.1,3.8-3.4,5.5
			c-0.2,0.2-0.4,0.5-0.6,0.7c-1.1,1-2.3,1-3.3-0.2c-0.6-0.7-1-1.6-1.4-2.5c-0.9-2.5-1.2-5.2-1.3-7.8c-0.1-3.2,0.2-6.3,0.6-9.4
			c0.5-4.2,1.2-8.3,1.2-12.5c0-1.1-0.1-2.2-0.3-3.3c-0.4-1.8-1.5-2.5-3.3-2.2c-1.7,0.3-3.2,1.1-4.5,2.1c-4.1,3.1-7.2,7-9.2,11.7
			c-1.2,2.8-1.8,5.8-2.1,8.9c0,0.3,0,0.5,0,0.8c-0.1,0.5-0.2,0.8-0.7,1c-0.5,0.1-0.9,0-1.2-0.4c-0.6-0.9-1.1-1.7-1.6-2.6
			c-2.2-4.1-3.7-8.4-4.8-12.9c-0.7-2.7-1.1-5.4-1.6-8.1c-0.1-0.3-0.1-0.6-0.2-1.1c-1.3,1.1-2.5,2-3.6,3c-2.7,2.3-5.5,4.6-7.8,7.3
			c-1.8,2.1-3.3,4.3-3.9,7.1c-0.1,0.6-0.1,1.2-0.2,1.9c-0.1,0.4-0.2,0.9-0.7,0.9c-0.4,0-0.9-0.3-0.9-0.9c-0.1-0.8-0.1-1.6,0.1-2.4
			c0.5-2.7,1.9-5,3.7-7.1c2.9-3.5,6.4-6.4,9.9-9.2c1.1-0.9,2.1-1.7,3.1-2.5c-0.1-2.5-0.3-4.9-0.4-7.4c-0.1-3.8,0.2-7.6,1-11.3
			c0.4-1.9,1-3.8,1.6-5.7c1.2-3.3,3-6.3,5.7-8.6c1.6-1.4,3.4-2.4,5.6-2.5c3.6-0.1,6.5,2.3,7.3,6c0.6,2.8,0.3,5.5-0.7,8.1
			c-1.3,3.7-3.4,7-5.8,10.1c-2.3,2.9-4.9,5.5-7.7,7.9c-0.5,0.4-0.7,0.9-0.6,1.5c0.5,3.2,1,6.3,1.6,9.5c0.4,2.2,0.9,4.3,1.3,6.5
			c0.3,1.8,0.6,3.6,0.9,5.5c0.1-0.3,0.2-0.4,0.3-0.6c1.4-5.2,4.1-9.6,7.9-13.5c1.8-1.9,3.8-3.5,6.1-4.8c0.7-0.4,1.5-0.7,2.4-1
			c3-0.9,5.7,0.8,6.6,3.3c0.7,1.7,0.9,3.5,0.7,5.3c-0.2,2.9-0.4,5.8-0.7,8.7c-0.4,3.9-1,7.7-1.3,11.5c-0.3,3.1-0.3,6.2,0.2,9.2
			c0.1,0.6,0.3,1.1,0.5,1.7c0.7-0.2,1-0.7,1.3-1.1c0.7-1.3,1.5-2.6,2.2-4c3.1-6.4,6.2-12.9,9.4-19.3c0.8-1.5,1-3,0.9-4.6
			c-0.2-3.9,0.2-7.7,1.6-11.4c1-2.6,2.5-4.9,4.8-6.6c3.7-2.7,9.3-2.2,12.2,2.3c1.3,2,1.2,4.2,0.3,6.3c-0.9,2.1-2.4,3.8-4.3,5
			c-2.1,1.3-4.3,2.3-6.7,2.6c-0.5,0.1-1.1,0.1-1.8,0.1c0,0.7,0.1,1.4,0.1,2.1c0.2,3.1,0.9,6.1,2,9c0.6,1.5,1.4,3,2.3,4.3
			c1.9,2.9,4.8,3.3,7.8,2.1c1.8-0.8,3.4-1.9,4.8-3.2c1-0.9,2-1.9,3-2.9c0.4-0.4,0.5-0.7,0.3-1.2c-0.5-2.2-1.1-4.3-1.5-6.5
			c-0.5-2.5-0.9-5-1-7.6c-0.1-1.8-0.3-3.7-0.4-5.5c-0.1-3.7,0-7.5,0.4-11.2c0.5-4.1,1.4-8.2,2.9-12c0.9-2.3,1.9-4.5,3.3-6.5
			c0.9-1.2,1.8-2.2,3.1-3c2-1.1,3.9-1,5.7,0.5c0.9,0.7,1.6,1.7,2.1,2.7c1.4,2.6,2,5.3,2.3,8.2c0.6,5.8-0.2,11.5-1.8,17
			c-2.1,7.1-5.3,13.8-9.3,20.1c-0.3,0.5-0.4,1-0.2,1.5c0.6,2.1,1.2,4.2,2,6.3c0.7,2,1.5,3.9,2.4,5.8c0.4,0.8,0.9,1.5,1.5,2.2
			c1.3,1.5,3.1,1.9,4.9,1.1c1.3-0.5,2.4-1.4,3.4-2.3c2.4-2.3,4.3-5,6.1-7.7c0.2-0.3,0.3-0.6,0.1-1c-0.7-2.5-1.2-5.1-1.6-7.7
			c-0.5-3.3-0.8-6.6-0.9-9.9c-0.2-4.1-0.1-8.1,0.2-12.2c0.3-3.7,0.8-7.4,1.7-11c0.9-3.4,2-6.7,3.7-9.7c0.9-1.5,1.9-2.9,3.2-4.1
			c0.7-0.7,1.6-1.2,2.5-1.5c1.7-0.5,3.4,0.2,4.5,2c0.8,1.1,1.2,2.4,1.6,3.7c0.9,3.3,1,6.6,0.8,10c-0.4,5.2-1.4,10.2-2.8,15.2
			c-1.8,6.8-4.2,13.4-7.5,19.6c-0.3,0.6-0.3,1.1-0.1,1.6c0.6,2.6,1.3,5.1,2.2,7.6c0.7,1.9,1.5,3.8,2.7,5.5c0.5,0.7,1.1,1.3,1.7,1.8
			c1,0.7,1.8,0.7,2.8-0.1c0.7-0.6,1.3-1.3,1.8-2c2.4-3.2,4.4-6.7,6.3-10.2c1.9-3.5,3.9-6.9,5.7-10.4c0.4-0.7,0.5-1.5,0.7-2.2
			c0.3-1.5,0.5-3,1.6-4.3c0.7-0.8,1.6-1.2,2.7-0.9c1,0.3,1.7,1.1,1.7,2.3c0,1.1,0,2.3-0.2,3.4c-0.4,4.1-0.3,8.1,1,12
			c0.7,2,1.6,3.9,2.8,5.6c1.6,2.2,3.7,3.1,6.3,2.9c2.6-0.2,4.8-1.4,6.8-3.1c2.4-2.2,4.1-4.8,5.3-7.7c2.2-5,3.2-10.2,2.8-15.6
			c-0.1-1.3-0.4-2.7-0.6-4.1c-0.4,0.2-0.6,0.3-0.8,0.4c-2.9,1.8-6.1,2.9-9.5,3.4c-2.6,0.3-5.2,0-7.5-1.5c-3-1.9-4.2-5.5-3-9
			c1.1-3.1,3.2-5.2,6.3-6.1c2.6-0.7,5.2-0.5,7.7,0.6c3.7,1.5,5.8,4.3,7.1,8c0.2,0.5,0.4,1,0.6,1.6c0,0,0,0,0.2,0.1
			c0.7-0.6,1.5-1.2,2.1-2c2-2.4,4-4.8,6-7.1c0.4-0.5,0.8-1,1.3-1.5c0.1-0.2,0.3-0.4,0.5-0.5c0.2-0.1,0.5-0.1,0.6,0
			c0.2,0.1,0.2,0.5,0.2,0.7c0,0.2-0.2,0.5-0.4,0.7c-2,2.5-4.1,5.1-6.2,7.6c-1,1.2-2.2,2.2-3.3,3.2c-0.2,0.2-0.4,0.3-0.6,0.5
			c0.2,1.4,0.5,2.7,0.6,4c0.6,4.6,0.1,9.1-1.3,13.5c-1.2,3.8-2.9,7.3-5.4,10.4c-2.4,2.9-5.3,5.1-9.1,6c-2.7,0.6-5.3,0.6-7.8-0.7
			c-1.4-0.7-2.6-1.7-3.7-2.8c-1.9-1.9-3.3-4.1-4.3-6.7c-0.6-1.5-0.9-3.1-1-4.7c-0.1-0.6-0.1-1.2-0.3-1.8c-0.5,0.9-1,1.8-1.5,2.7
			c-2.5,4.5-4.9,9-7.4,13.5c-1,1.8-2.1,3.5-3.6,4.9c-2.1,1.9-5.2,2.2-7.7,0.8c-2.2-1.3-3.8-3.2-5.1-5.3c-1-1.7-1.8-3.5-2.4-5.4
			c-0.1-0.2-0.2-0.5-0.3-0.9c-0.3,0.4-0.5,0.7-0.7,1c-1.4,1.9-2.8,3.7-4.3,5.5c-1.2,1.4-2.6,2.6-4.2,3.5c-3.4,1.8-6.6,1.3-9.6-0.9
			c-2-1.6-3.6-3.6-4.7-5.9c-0.7-1.4-1.4-2.9-2-4.4C212.5,199,212.4,198.8,212.2,198.5z M216.3,189.8c0.1,0,0.1,0,0.2,0
			c0.2-0.3,0.4-0.5,0.6-0.8c3.2-5,5.7-10.3,7.6-15.9c1.6-5,2.6-10,2.6-15.3c0-3.1-0.5-6.1-1.8-9c-0.5-1.3-1.2-2.5-2.4-3.3
			c-1.4-1.1-2.8-1-4,0.3c-0.3,0.3-0.5,0.6-0.7,0.9c-0.9,1.5-1.6,3-2,4.7c-0.6,2.4-1.1,4.7-1.2,7.2c-0.2,3.1-0.5,6.2-0.7,9.3
			c-0.1,2.8,0,5.6,0.1,8.4c0,1.6,0.2,3.1,0.3,4.7c0.2,1.8,0.5,3.5,0.7,5.3C215.8,187.4,216.1,188.6,216.3,189.8z M242.3,190
			c0.2-0.3,0.3-0.5,0.4-0.7c3.6-6.9,6.1-14.2,7.8-21.8c1.1-4.7,1.7-9.5,1.6-14.4c-0.1-2-0.3-4-1-5.9c-0.4-1-0.8-1.9-1.6-2.7
			c-1-1.1-2.1-1-3,0.1c-0.2,0.3-0.4,0.6-0.6,0.9c-0.9,1.7-1.4,3.5-1.9,5.4c-1.5,5.8-2.4,11.7-2.8,17.7c-0.2,3.6-0.3,7.3-0.1,10.9
			c0.1,1.5,0.1,3,0.3,4.4c0.2,1.9,0.5,3.8,0.7,5.7C242.1,189.7,242.2,189.7,242.3,190z M144.6,171.4c0.1,0,0.1,0,0.2,0.1
			c0.6-0.5,1.1-1,1.7-1.5c4-3.6,7.4-7.7,9.8-12.6c0.9-1.8,1.6-3.7,1.9-5.7c0.3-2.1,0.2-4.1-0.8-6c-1.5-2.7-4.4-3.3-6.9-1.4
			c-1.2,0.9-2.1,2.1-2.8,3.4c-1.3,2.5-2.1,5.2-2.5,8c-0.7,3.9-0.8,7.8-0.7,11.8C144.4,168.8,144.5,170.1,144.6,171.4z M296.6,172.4
			c-0.5-1.6-1.1-2.9-1.8-4.2c-1.9-3.3-4.7-4.9-8.6-4.9c-3,0-5.2,1.3-6.3,4.1c-1.4,3.5-0.1,6.6,3.1,7.9c1.5,0.6,3.2,0.8,4.8,0.6
			c2.6-0.3,5-1.2,7.3-2.5C295.6,173,296.1,172.7,296.6,172.4z M191.2,183.2c0.3,0,0.4,0,0.5,0c2.2-0.3,4.2-0.9,6.2-1.9
			c2.1-1.1,3.8-2.7,4.6-5c0.5-1.5,0.5-3-0.8-4.2c-0.6-0.6-1.4-1.1-2.2-1.5c-1.8-0.8-3.5-0.4-4.8,1.1c-0.8,0.8-1.4,1.8-1.7,2.8
			c-0.3,1-0.7,2.1-1,3.1C191.5,179.4,191.3,181.2,191.2,183.2z"/>
		<g>
			<path d="M149,222.9c-0.5,1.5-0.9,2.9-1.3,4.4c-1.7,6.5-3.4,13.1-5.2,19.6c-1.2,4.6-2.5,9.2-3.8,13.7c-0.2,0.7-0.5,1.4-0.8,2
				c-0.6,1.2-1.6,1.4-2.5,0.6c-0.6-0.5-1.1-1.1-1.5-1.8c-2-3.1-4.1-6.2-5.9-9.4c-2.3-3.9-4.4-7.8-6.5-11.8c-1.6-3-3-6-4.4-9.1
				c-1.1-2.4-2.2-4.8-3.2-7.2c-0.9-2-1.7-3.9-2.5-5.9c-0.3-0.6-0.4-1.3-0.6-2c-0.3-1.2,0-2.3,0.8-2.9c0.8-0.5,1.7-0.4,2.6,0.4
				c1.3,1.2,2.3,2.7,3.2,4.3c1.5,2.9,3,5.9,4.4,8.9c1.6,3.3,3.1,6.6,4.6,9.9c1,2.3,1.9,4.7,2.8,7.1c0.5,1.2,1,2.4,1.5,3.6
				c1.2,3.2,2.3,6.4,3.4,9.6c0.5,1.3,1.1,2.5,1.6,3.7c0.2,0.4,0.5,0.8,0.9,1.3c0.3-0.8,0.5-1.3,0.7-1.9c0.7-2.6,1.3-5.2,1.9-7.7
				c2.2-8.5,4.4-17.1,6.6-25.6c0.5-1.8,0.9-3.7,1.2-5.5c0.2-1,0.3-2.1,0.3-3.2c0-1.1,0.3-2.1,1.2-2.6c0.9-0.5,1.9-0.5,2.8,0.2
				c1.1,0.8,1.9,2,2.5,3.3c1.2,2.6,2.4,5.2,3.6,7.8c1.2,2.6,2.4,5.2,3.6,7.8c1.9,4.3,3.8,8.6,5.7,13c2,4.6,3.9,9.2,5.9,13.9
				c0.9,2.1,1.7,4.2,2.6,6.2c0.1,0.2,0.2,0.3,0.4,0.5c0.1-0.6,0.1-1.2,0.2-1.8c0.2-4.2,0.4-8.4,0.7-12.7c0.4-5.6,1.3-11.2,2.4-16.7
				c0.6-3.3,1.2-6.7,1.9-9.9c0.9-3.8,1.9-7.6,2.8-11.4c0.1-0.2,0.1-0.4,0.2-0.6c0.2-0.4,0.5-0.6,0.9-0.5c0.4,0.1,0.6,0.4,0.7,0.9
				c0,0.3,0,0.7-0.1,1c-0.8,3.8-1.6,7.5-2.4,11.3c-1.1,5.2-2.1,10.3-3.1,15.5c-0.8,4.1-1.4,8.3-1.7,12.5c-0.3,4.6-0.6,9.2-0.5,13.8
				c0,0.8,0,1.7-0.2,2.4c-0.4,1.6-1.5,2.1-2.8,1.3c-0.5-0.3-1.1-0.8-1.4-1.4c-1.3-1.9-2.5-3.8-3.6-5.8c-1.8-3.1-3.5-6.2-5.1-9.3
				c-2.5-4.6-4.7-9.4-6.8-14.2c-1.6-3.6-3.2-7.3-4.8-10.9c-1.2-2.7-2.4-5.4-3.5-8.1C149.3,223.3,149.2,223.2,149,222.9z"/>
			<path d="M291,241.4c0.2-0.7,0.5-1.5,0.7-2.2c2.2-6.5,5.3-12.4,9.4-17.9c1.7-2.2,3.5-4.3,5.6-6.1c1-0.8,2.1-1.4,3.4-1.7
				c1.7-0.4,3.2,0.1,4.6,1.2c1.4,1.2,2.3,2.7,3,4.3c1.3,3,1.9,6.1,2.2,9.3c0.4,3.5,0.3,7.1,0.1,10.6c-0.2,2.4-0.4,4.8-0.6,7.2
				c-0.2,1.6-0.5,3.1-0.8,4.6c-0.2,1.2-0.5,2.4-0.7,3.7c-1,4.3-2.8,8.2-5.5,11.7c-1.2,1.5-2.5,2.9-4,4.1c-3.5,2.8-8,2.9-11.7,0.4
				c-3-1.9-5.1-4.6-6.4-7.9c0-0.1-0.1-0.2-0.3-0.4c-0.2,1.4-0.3,2.7-0.5,3.9c-0.1,0.6-0.2,1.3-0.4,1.9c0,0.2-0.1,0.3-0.1,0.5
				c-0.3,0.6-0.7,0.9-1.2,0.9c-0.6,0-0.9-0.4-1-0.9c-0.2-0.5-0.3-1.1-0.4-1.6c-0.4-3-0.8-6-1-9c-0.2-2.5-0.3-5.1-0.3-7.7
				c0-3.5,0-7,0.1-10.4c0-2.1,0-4.3,0.1-6.4c0.1-3.2,0.2-6.4,0.4-9.6c0.2-2.5,0.2-5.1,0.9-7.5c0.2-0.6,0.3-1.3,0.6-1.9
				c0.3-0.9,1.1-1.4,1.9-1.3c0.9,0.1,1.6,0.6,1.7,1.6c0.2,1.3,0.4,2.7,0.4,4c0,4,0,7.9,0,11.9c0,3-0.1,6-0.2,9c0,0.6,0,1.1,0,1.7
				C290.9,241.4,290.9,241.4,291,241.4z M314.5,230.1c0-3.1-0.2-6.2-0.8-9.2c-0.2-1.1-0.5-2.2-0.9-3.3c-0.7-1.8-2.3-2.4-4-1.5
				c-0.9,0.5-1.8,1.1-2.5,1.8c-2.2,2-4,4.3-5.7,6.8c-4.4,6.4-7.3,13.3-9.1,20.8c-0.3,1.2-0.7,2.5-0.8,3.8c-0.2,2.1-0.2,4.3-0.3,6.4
				c0,0.7-0.1,1.4,0.1,2c0.6,2.1,1.5,4.2,2.7,6.1c1.5,2.3,3.4,4.3,6.1,5.3c3,1.2,5.1,0.5,7-1.7c2.2-2.6,3.6-5.5,4.6-8.7
				c0.5-1.8,1-3.6,1.3-5.4c0.4-2,0.7-4,1-6c0.3-2.2,0.5-4.4,0.7-6.7C314,237.1,314.2,233.6,314.5,230.1z"/>
			<path d="M234.8,253.8c0.5,0.3,1,0.6,1.5,1c2.1,1.5,3.8,3.3,5.1,5.3c1.6,2.6,3,5.3,4.6,7.9c0.5,0.8,0.9,1.7,1.4,2.5
				c0.1,0.2,0.2,0.3,0.2,0.5c0.2,0.5,0,1-0.5,1.2c-0.5,0.3-1,0.2-1.4-0.2c-0.5-0.6-1-1.2-1.4-1.8c-1.9-2.7-3.8-5.4-5.6-8.2
				c-1.5-2.3-3.3-4.4-5.8-5.9c-0.8-0.5-1.6-0.8-2.4-1.1c-0.3-0.1-0.7-0.1-1.2-0.2c-0.1,1.3-0.3,2.4-0.3,3.6
				c-0.1,2.3-0.1,4.6-0.2,6.9c0,0.3-0.1,0.6-0.2,0.9c-0.2,0.5-0.5,0.8-1.1,0.9c-0.5,0.1-1-0.2-1.3-0.8c-0.1-0.3-0.2-0.6-0.2-0.9
				c-0.2-2.2-0.4-4.4-0.6-6.6c-0.1-0.9-0.3-1.8-0.3-2.7c-0.2-2.7-0.3-5.4-0.4-8.1c-0.1-2.8-0.2-5.7-0.2-8.5c0-1.6-0.1-3.1-0.1-4.7
				c0-3.5,0-7,0-10.5c0-1.3,0.2-2.6,0.3-4c0.1-0.8,0.2-1.6,0.7-2.4c0.3-0.5,0.7-0.9,1.4-0.9c0.2,0,0.4-0.1,0.6-0.2
				c3.5-1.6,7.3-2.1,11.2-2.1c5.5,0,10,2,13.4,5.8c2.7,3,4.1,6.6,4.3,10.5c0.1,3.4-0.6,6.7-2.4,9.8c-1.3,2.3-3,4.3-5.1,6
				c-1.9,1.5-3.9,2.8-6.1,3.9c-2.2,1.1-4.5,2.1-7,2.6c-0.2,0-0.4,0.1-0.6,0.2C234.9,253.6,234.9,253.6,234.8,253.8z M229.4,252.5
				c0.4-0.1,0.8-0.2,1.1-0.3c4.2-1.3,8.2-3.2,11.8-5.5c2-1.3,3.8-2.8,5.3-4.6c2.3-2.9,3.6-6.2,3.8-9.8c0.2-3.6-0.7-6.8-3-9.7
				c-2.4-3-5.6-4.9-9.8-5.4c-3-0.4-6,0-9,0.7c-0.4,0.1-0.7,0.2-1.1,0.3c0.2,0.7,0.4,1.3,0.5,1.9c0.4,2.5,0.5,5,0.5,7.5
				c0,1.9-0.1,3.8-0.1,5.7c0,2.6,0,5.1-0.1,7.7c0,3.7-0.1,7.4-0.1,11.1C229.3,252.2,229.3,252.3,229.4,252.5z"/>
			<path d="M217.4,241.1c-0.1,5.1-1,10.4-2.4,15.5c-0.9,3.4-2.2,6.7-4,9.7c-1,1.7-2.3,3.3-3.8,4.5c-2.7,2.1-5.4,2.1-8.1,0.3
				c-2.6-1.7-4.5-4.1-6.1-6.9c-1.7-3.2-2.8-6.7-3.6-10.3c-0.7-3-1-6.1-1.2-9.2c-0.3-4.3,0-8.6,0.7-12.9c0.8-4.5,2.1-8.9,4.6-12.7
				c1.2-1.9,2.5-3.6,4.3-4.8c1.5-1,3.2-1.7,5.1-1c0.5,0.2,1,0.6,1.5,1c0.3,0.2,0.5,0.6,0.8,0.8c1.9,1,3.4,2.6,4.9,4.1
				c1.7,1.7,3.2,3.6,4.4,5.7c1.3,2.4,2,5.1,2.5,7.9C217.4,235.5,217.5,238.2,217.4,241.1z M194.4,241.3c0,1.2-0.1,2.4,0,3.6
				c0.2,4.2,0.7,8.4,1.9,12.5c0.6,2,1.2,4,2,5.9c0.8,1.8,1.8,3.5,3.2,4.8c1.3,1.1,2.6,1.3,4,0.4c0.6-0.4,1.2-0.8,1.7-1.3
				c1.8-1.8,2.9-4,3.9-6.4c1.4-3.3,2.2-6.8,2.8-10.3c0.9-5.3,1.3-10.6,0.5-16c-0.5-3.5-1.7-6.7-3.6-9.6c-2-2.9-4.6-5.2-7.1-7.5
				c-0.3-0.3-0.6-0.3-1-0.1c-1.5,0.8-2.5,2.1-3.4,3.6c-1.1,1.7-2,3.6-2.6,5.6c-0.6,1.7-1.1,3.5-1.5,5.3
				C194.7,235,194.3,238.1,194.4,241.3z"/>
			<path d="M263.1,270.9c0.7,0,1.4,0,2-0.1c4.2-0.7,8.4-1.4,12.6-2.2c0.4-0.1,0.8-0.2,1.3-0.1c0.2,0,0.5,0.2,0.6,0.4
				c0.1,0.3-0.1,0.6-0.4,0.7c-0.2,0.1-0.4,0.1-0.6,0.2c-3.1,0.7-6.2,1.4-9.3,2c-1.9,0.4-3.9,0.5-5.9,0.7c-1.5,0.1-2.4-0.5-2.7-2.1
				c-0.2-1.2-0.4-2.3-0.4-3.5c0-3.8-0.1-7.6,0-11.4c0.2-7.2,0.5-14.4,0.8-21.6c0.2-3.8,0.4-7.6,0.8-11.4c0.2-1.8,0.6-3.6,1-5.4
				c0.1-0.6,0.5-1.2,0.9-1.6c0.8-0.9,2.1-0.7,2.8,0.3c0.4,0.7,0.5,1.5,0.6,2.3c0.1,3.6,0,7.2-0.2,10.7c-0.2,2.7-0.3,5.3-0.4,8
				c-0.2,2.5-0.3,5-0.6,7.6c-0.5,6.2-1.1,12.5-1.6,18.7c-0.2,2.2-0.6,4.4-0.9,6.6C263.2,270,263.1,270.3,263.1,270.9z"/>
		</g>
	</g>
	<g>
		<path class="st0" d="M391.9,257c-0.3-0.3-0.7-0.6-1.1-0.9c-4.2-3.1-8.6-5.9-13-8.8c-3.6-2.4-7.3-4.8-11.1-6.9
			c-1.2-0.6-2.3-0.8-3.6-0.6c-1.7,0.3-1.8,0.8-1.8,2.6c0,0.2,0.1,0.5,0.2,0.7c0.8,2.8,1.6,5.5,3.2,8c0.1,0.2,0.2,0.3,0.2,0.5
			c-0.2,0.2-0.4,0.1-0.6,0c-12-3.3-24.3-5.5-36.6-7.1c-1.2-0.2-2.4-0.3-3.6-0.4c-0.3,0.9-0.5,1.8-0.8,2.7c12.8,1.6,25.5,3.9,38,7.4
			c1,0.3,2,0.6,3.1,0.9c0.2,0.1,0.5,0.1,0.7,0.3c-0.6,0.7-1.3,1.3-2,1.8c-1.8,1.3-3.5,2.8-5.1,4.4c-0.4,0.4-0.8,0.8-1.1,1.3
			c-0.3,0.6-0.2,0.9,0.4,1.1c0.4,0.1,0.9,0.2,1.3,0.1c3-0.1,6-0.6,9-1c2.3-0.4,4.6-0.8,6.9-1c3.2-0.3,6.5-0.7,9.7-1.1
			c1.9-0.2,3.9-0.5,5.7-1c0.7-0.2,1.3-0.4,1.9-0.9C392.7,258.5,392.7,257.8,391.9,257z"/>
		<path class="st0" d="M121.1,246.4c-3.6,0.9-7.1,1.8-10.7,2.7c-1.8,0.5-3.5,0.9-5.3,1.5c-0.6,0.2-1,0.2-1.5-0.1
			c-1.2-0.5-2.2-1.1-3.4-1.7c-1.4-0.7-2.7-1.4-4.1-2.2c-2.3-1.2-4.7-1.6-7.4-1.3c-3.6,0.5-7,1.3-10.5,2.3c-4.8,1.4-9.6,2.9-14.2,5
			c-6.4,3-12.4,6.9-17.7,11.6c-1.5,1.4-3,2.8-4.4,4.2c-0.8,0.7-1.4,1.6-2,2.5c-0.3,0.4-0.5,0.9-0.5,1.4c0,0.8,0.7,1.5,1.6,1.6
			c1.2,0.1,2.3,0,3.5,0c3.2,0,6.5-0.1,9.7-0.5c0.7-0.1,1.3,0.4,2.2,0.1c-0.1,1.2-0.2,2.2-0.4,3.1c-0.6,3.5-1.2,6.9-1.5,10.4
			c0,0.3-0.1,0.7-0.1,1c-0.1,0.6,0,1.2,0.2,1.8c0.4,1,1.4,1.4,2.3,0.7c0.6-0.4,1-0.9,1.4-1.5c2.4-3,5.1-5.7,7.7-8.5
			c2.1-2.3,4.7-3.9,7.3-5.4c4.1-2.4,8.2-4.8,12.7-6.4c2.3-0.8,4.6-1.3,7-1.8c2.4-0.6,4.9-1,7.3-1.2c0.4,0,0.7-0.2,1.1-0.2
			c0.8-0.2,1.4-0.7,1.7-1.5c1-3.1,2.4-6.1,3.6-9.1c0.3-0.7,0.7-1.3,0.9-2c0.1-0.3,0.4-0.4,0.7-0.4c1.7-0.5,3.5-1,5.3-1.5
			c2.3-0.6,4.5-1.2,6.8-1.7C120.4,248.4,120.7,247.4,121.1,246.4z M57.1,270.1c-0.2,0.3-0.5,0.3-0.8,0.4c-3.9,0.3-7.9,0.7-11.8,0.6
			c-0.1,0-0.3,0.1-0.4-0.2c2.5-2.3,4.9-4.9,7.7-7c0.3-0.2,0.4-0.2,0.7,0c0.6,0.4,1.3,0.7,1.9,1.2c0.8,0.6,1.6,1,2.5,1.3
			c1.3,0.5,2.6,1,4,1.8c-1.2,0.5-1.9,1.3-3,1.4C57.6,269.6,57.3,269.8,57.1,270.1z M62.9,279.6c-1.4,1.5-2.7,3.2-4.3,4.7
			c-0.2,0.2-0.4,0.5-0.8,0.6c0-0.2,0-0.3,0-0.4c0.4-2.4,0.7-4.8,1.2-7.1c0.3-1.5,0.6-3.1,0.6-4.7c0-0.5-0.1-1,0.4-1.4
			c0.7-0.5,1.4-0.9,2.4-1.3c0.1,3.1,0.3,6,0.7,9C63.1,279.2,63,279.4,62.9,279.6z M74.3,271.3c-2.5,1.4-5.1,2.9-7.4,4.7
			c-0.1,0.1-0.2,0.2-0.4,0.1c0-0.1-0.1-0.2-0.1-0.4c-0.1-2.3-0.3-4.6-0.3-6.9c0-0.5,0.1-0.8,0.6-1c2.3-1,4.6-2,6.9-3.1
			c0.7-0.3,0.7-0.3,0.8,0.5c0.2,1.6,0.4,3.2,0.6,4.9C75.1,270.7,74.8,271,74.3,271.3z M78.5,259.8c-4.2,1.7-8.3,3.7-12.5,5.7
			c-0.4,0.2-0.7,0.2-1,0c-0.5-0.3-1.1-0.6-1.6-0.9c-2.1-1-4.1-2.4-5.9-3.8c-0.2-0.1-0.4-0.2-0.4-0.5c0.1-0.2,0.4-0.3,0.6-0.5
			c4.1-2.7,8.5-4.9,13.1-6.5c0.7-0.2,1.2-0.5,1.6,0.4c0.1,0.2,0.3,0.3,0.5,0.4c0.6,0.4,1.2,0.9,1.8,1.3c1.6,1.1,3,2.5,4.3,4
			C78.8,259.6,78.6,259.7,78.5,259.8z M89.7,260.3c-0.1,1.4-0.3,2.8-0.6,4.2c-0.1,0.4-0.2,0.6-0.6,0.7c-2.9,0.7-5.7,1.8-8.5,3.1
			c-0.6,0.3-0.8,0.1-1-0.5c-0.1-0.2,0-0.4-0.1-0.7c-0.1-1.2-0.1-2.4-0.2-3.7c-0.1-0.9-0.1-0.9,0.8-1.3c1.8-0.7,3.6-1.4,5.4-2
			c1.6-0.6,3.1-1.1,4.8-1.7C89.8,259.1,89.8,259.7,89.7,260.3z M91.7,254.9c-2,0.7-4,1.4-6,2.1c-0.4,0.1-0.6,0.2-0.8-0.3
			c-0.1-0.5-0.5-0.8-0.8-1.1c-0.4-0.3-0.8-0.7-1.2-1c-1.3-1.1-2.3-2.6-3.5-4c3.2-0.9,6.4-1.6,9.6-2.2c2.1-0.3,4.1,0,5.9,0.9
			c1.4,0.7,2.8,1.5,4.2,2.2c0.3,0.2,0.6,0.3,0.9,0.6c-0.1,0.2-0.3,0.2-0.5,0.3C96.8,253.2,94.3,254,91.7,254.9z M103.3,255.2
			c-0.9,2.2-1.9,4.3-2.6,6.6c-0.1,0.3-0.2,0.5-0.3,0.8c-0.1,0.3-0.2,0.4-0.5,0.5c-0.8,0.1-1.6,0.2-2.4,0.2c-0.1-0.4,0-0.8,0-1.2
			c0.2-0.8,0.3-1.6,0.4-2.4c0.2-1.2,0.3-2.4,0.6-3.6c0.1-0.3,0.2-0.6,0.5-0.7c1.5-0.4,3-0.9,4.6-1.4
			C103.6,254.5,103.4,254.8,103.3,255.2z"/>
	</g>
</g>
</svg>
